<svg xmlns="http://www.w3.org/2000/svg" xmlns:xlink="http://www.w3.org/1999/xlink" width="397.5" height="191.25"><defs><linearGradient id="a"><stop offset="0" stop-color="#70b0df"/><stop offset=".5" stop-color="#1b81c5"/><stop offset="1" stop-color="#4a98ce"/></linearGradient><linearGradient xlink:href="#a" id="b" x1="162.6744" x2="162.6744" y1="14.4527" y2="175.0349" gradientUnits="userSpaceOnUse"/></defs><g fill="#8c96a1"><path fill-rule="evenodd" d="M48.8223 92.9238 12.205 174.9414h23.9492l7.1191-17.3828h36.8028l7.1191 17.3828h23.9492l-36.709-82.0176H48.8223zm13.0058 19.338 6.213 15.5956 6.2128 15.5977-12.3887.0293-12.3886.0312 6.1757-15.627 6.1758-15.627zm164.597-19.338-36.6172 82.0176h23.9492l7.1191-17.3828h36.8027l7.1192 17.3828h23.9492l-36.709-82.0176H226.425zm13.0058 19.338 6.2129 15.5956 6.2129 15.5977-12.3887.0293-12.3887.0312 6.1758-15.627 6.1758-15.627zM295.011 92.641h27.1996l17.392 26.1535L358.041 92.641h26.8073l-32.2995 39.7532 34.3918 42.83h-27.1996l-19.7459-27.9225-19.3535 27.9225h-29.0303l35.0456-42.4376z"/><path d="M179.9414 55.9297 147.381 87.955l11.209 10.1426 10.6035-10.6602 1.1836.002v61.1543c0 7.7635-6.2502 14.0137-14.0137 14.0137h-11.1348c-7.7635 0-14.0137-6.2502-14.0137-14.0137v-6.5273h-21.6503v8.1289c0 14.036 11.2999 25.3359 25.3359 25.3359h28.7656c14.036 0 25.336-11.3 25.336-25.336V87.4826l.8378.002 12.3868 10.6132 9.7402-10.1425-32.0254-32.0254z" color="#000" style="isolation:auto;mix-blend-mode:normal;solid-color:#000;solid-opacity:1;marker:none" transform="translate(0 2)"/><path d="m120.2293 135.3326 32.5605-32.0254-11.209-10.1426-10.6035 10.6602-1.1835-.002V42.6684c0-7.7635 6.2501-14.0137 14.0136-14.0137h11.1348c7.7635 0 14.0137 6.2502 14.0137 14.0137v6.5273h21.6504v-8.1289c0-14.036-11.3-25.336-25.336-25.336h-28.7656c-14.036 0-25.336 11.3-25.336 25.336v62.7129l-.8378-.002-12.3867-10.6133-9.7403 10.1426 32.0254 32.0254z" color="#000" style="isolation:auto;mix-blend-mode:normal;solid-color:#000;solid-opacity:1;marker:none" transform="translate(0 2)"/></g><path fill="url(#b)" fill-rule="evenodd" stroke="#0c4c75" stroke-width=".5" d="M136.504 15.7305c-14.0361 0-25.336 11.2999-25.336 25.336v62.7128l-.838-.002-12.3866-10.6132-9.7403 10.1425 32.0254 32.0254 32.5606-32.0254-11.209-10.1425-10.6035 10.6601-1.1836-.002V42.668c0-7.7635 6.2501-14.0137 14.0136-14.0137h11.1348c7.7635 0 14.0137 6.2502 14.0137 14.0137v6.5273h21.6504v-8.1289c0-14.036-11.3-25.336-25.336-25.336H136.504zm43.4374 40.1992L147.381 87.955l11.209 10.1426 10.6035-10.6602 1.1836.002v61.1543c0 7.7634-6.2502 14.0136-14.0137 14.0136h-11.1348c-7.7635 0-14.0137-6.2502-14.0137-14.0137v-6.5273h-21.6503v8.129c0 14.036 11.2999 25.3358 25.3359 25.3358h28.7656c14.036 0 25.336-11.2999 25.336-25.3359V87.4824l.8378.002 12.3868 10.6133 9.7402-10.1426-32.0254-32.0254zm115.0703 34.711 31.6445 40.1464-35.0449 42.4375h29.0293l19.3535-27.9238 19.7461 27.9238h27.2012l-34.3926-42.83 32.2989-39.754H358.041l-18.4375 26.1543-17.3926-26.1543h-27.1992zm-246.1894.2831L12.205 172.9414h23.9492l7.1191-17.3828h36.8028l7.1191 17.3828h23.9492l-36.709-82.0176H48.8223zm177.6035 0-36.6172 82.0176h23.9492l7.1191-17.3828h36.8028l7.1191 17.3828h23.9492l-36.709-82.0176h-25.6132zM61.828 110.2618l6.213 15.5956 6.2128 15.5977-12.3887.0293-12.3886.0312 6.1757-15.627 6.1758-15.6269zm177.6035 0 6.213 15.5956 6.2128 15.5977-12.3887.0293-12.3886.0312 6.1758-15.627 6.1757-15.6269z"/></svg>