<svg xmlns="http://www.w3.org/2000/svg" width="px" height="0" viewBox="0 0 556 625"><path d="M553.5273 185.0156c-.0039-10.4023-2.2304-19.5976-6.7343-27.4883-4.4258-7.7617-11.0508-14.2656-19.9414-19.4101-73.3672-42.2656-146.8047-84.4024-220.1524-126.711C286.9258 0 267.754.418 248.129 11.9883 218.9258 29.1915 72.7188 112.8829 29.1484 138.0938 11.207 148.4767 2.4766 164.3555 2.4727 184.9962 2.4414 270 2.4727 355 2.4414 440c0 10.1758 2.1367 19.1953 6.4453 26.9648 4.4258 7.9961 11.1446 14.6797 20.2383 19.9375 43.5703 25.2149 189.7969 108.8985 218.996 126.1094 19.633 11.5742 38.8048 11.9883 58.586.582 73.3477-42.3125 146.789-84.4492 220.168-126.7187 9.0938-5.254 15.8125-11.9414 20.2422-19.9297 4.2969-7.7734 6.4414-16.789 6.4414-26.9687 0 0 0-169.957-.0313-254.961" style="stroke:none;fill-rule:nonzero;fill:#a179dc;fill-opacity:1"/><path d="M278.8438 311.6719 8.8868 466.9649c4.4257 7.996 11.1445 14.6796 20.2382 19.9374 43.5703 25.2149 189.7969 108.8985 218.996 126.1094 19.633 11.5742 38.8048 11.9883 58.586.582 73.3477-42.3125 146.789-84.4492 220.168-126.7187 9.0938-5.254 15.8125-11.9414 20.2422-19.9297Zm0 0" style="stroke:none;fill-rule:nonzero;fill:#280068;fill-opacity:1"/><path d="M553.5273 185.0156c-.0039-10.4023-2.2304-19.5976-6.7343-27.4883L278.8437 311.672l268.2735 155.2734c4.2969-7.7734 6.4336-16.789 6.4414-26.9687 0 0 0-169.957-.0313-254.961" style="stroke:none;fill-rule:nonzero;fill:#390091;fill-opacity:1"/><path d="M437.7852 253.6172v29.0273h29.0546v-29.0273h14.5274v29.0273h29.0547v14.5157h-29.0547v29.0234h29.0547v14.5156h-29.0547v29.0274h-14.5274v-29.0274h-29.0546v29.0274h-14.5274v-29.0274H394.207v-14.5156h29.0508v-29.0234H394.207v-14.5157h29.0508v-29.0273Zm29.0546 43.539h-29.0546v29.0274h29.0546Zm0 0" style="stroke:none;fill-rule:nonzero;fill:#fff;fill-opacity:1"/><path d="M279.4375 107.836c75.7813 0 141.9414 41.1171 177.3828 102.2382l-.3476-.5898-89.1641 51.293c-17.5625-29.7188-49.7656-49.7735-86.711-50.1837l-1.164-.0078c-56.332 0-102.004 45.629-102.004 101.9102-.0194 17.7422 4.6212 35.1758 13.4532 50.5664 17.582 30.664 50.6367 51.3516 88.5547 51.3516 38.1484 0 71.3906-20.9493 88.8828-51.9454l-.4219.7461 89.0274 51.5274c-35.0508 60.6015-100.3086 101.5937-175.207 102.4101l-2.2813.0118c-76.0234 0-142.371-41.3711-177.7227-102.8125C84.457 384.3555 74.586 349.582 74.586 312.496c0-113.0313 91.711-204.664 204.8477-204.664Zm0 0" style="stroke:none;fill-rule:nonzero;fill:#fff;fill-opacity:1"/></svg>