<?xml version="1.0" encoding="UTF-8"?>
<svg xmlns="http://www.w3.org/2000/svg" xmlns:xlink="http://www.w3.org/1999/xlink" width="px" height="0px" viewBox="0 0 21 25" version="1.1">
<defs>
<linearGradient id="linear0" gradientUnits="userSpaceOnUse" x1="26.648937" y1="20.603781" x2="135.66525" y2="114.39767" gradientTransform="matrix(0.11359,0,0,0.112693,-3.027053,-2.321899)">
<stop offset="0" style="stop-color:rgb(35.294118%,62.352941%,83.137255%);stop-opacity:1;"/>
<stop offset="1" style="stop-color:rgb(18.823529%,41.176471%,59.607843%);stop-opacity:1;"/>
</linearGradient>
<linearGradient id="linear1" gradientUnits="userSpaceOnUse" x1="150.96111" y1="192.35176" x2="112.03144" y2="137.27299" gradientTransform="matrix(0.11359,0,0,0.112693,-3.027053,-2.321899)">
<stop offset="0" style="stop-color:rgb(100%,83.137255%,23.137255%);stop-opacity:1;"/>
<stop offset="1" style="stop-color:rgb(100%,90.980392%,45.098039%);stop-opacity:1;"/>
</linearGradient>
<filter id="alpha" filterUnits="objectBoundingBox" x="0%" y="0%" width="100%" height="100%">
  <feColorMatrix type="matrix" in="SourceGraphic" values="0 0 0 0 1 0 0 0 0 1 0 0 0 0 1 0 0 0 1 0"/>
</filter>
<mask id="mask0">
  <g filter="url(#alpha)">
<rect x="0" y="0" width="21" height="25" style="fill:rgb(0%,0%,0%);fill-opacity:0.443137;stroke:none;"/>
  </g>
</mask>
<radialGradient id="radial0" gradientUnits="userSpaceOnUse" cx="61.518883" cy="132.28575" fx="61.518883" fy="132.28575" r="29.036913" gradientTransform="matrix(0.00000000353175,-0.0476085,0.212962,0.0000000752291,-16.901123,28.266272)">
<stop offset="0" style="stop-color:rgb(72.156863%,72.156863%,72.156863%);stop-opacity:0.498039;"/>
<stop offset="1" style="stop-color:rgb(49.803922%,49.803922%,49.803922%);stop-opacity:0;"/>
</radialGradient>
<clipPath id="clip1">
  <rect x="0" y="0" width="21" height="25"/>
</clipPath>
<g id="surface5" clip-path="url(#clip1)">
<path style=" stroke:none;fill-rule:nonzero;fill:url(#radial0);" d="M 18.527344 25.335938 C 18.527344 24.574219 15.277344 23.953125 11.269531 23.953125 C 7.265625 23.953125 4.015625 24.574219 4.015625 25.335938 C 4.015625 26.101562 7.265625 26.71875 11.269531 26.71875 C 15.277344 26.71875 18.527344 26.101562 18.527344 25.335938 Z M 18.527344 25.335938 "/>
</g>
</defs>
<g id="surface1">
<path style=" stroke:none;fill-rule:nonzero;fill:url(#linear0);" d="M 11.089844 0 C 10.164062 0.00390625 9.28125 0.0820312 8.503906 0.21875 C 6.210938 0.613281 5.796875 1.449219 5.796875 2.984375 L 5.796875 5.011719 L 11.210938 5.011719 L 11.210938 5.6875 L 3.761719 5.6875 C 2.191406 5.6875 0.8125 6.617188 0.382812 8.382812 C -0.117188 10.410156 -0.136719 11.675781 0.382812 13.789062 C 0.765625 15.363281 1.683594 16.488281 3.257812 16.488281 L 5.121094 16.488281 L 5.121094 14.054688 C 5.121094 12.300781 6.667969 10.75 8.503906 10.75 L 13.910156 10.75 C 15.414062 10.75 16.617188 9.535156 16.617188 8.046875 L 16.617188 2.984375 C 16.617188 1.539062 15.378906 0.457031 13.910156 0.21875 C 12.980469 0.0664062 12.015625 -0.00390625 11.089844 0 Z M 8.160156 1.632812 C 8.722656 1.632812 9.175781 2.085938 9.175781 2.648438 C 9.175781 3.207031 8.722656 3.660156 8.160156 3.660156 C 7.601562 3.660156 7.144531 3.207031 7.144531 2.648438 C 7.144531 2.085938 7.601562 1.632812 8.160156 1.632812 Z M 8.160156 1.632812 "/>
<path style=" stroke:none;fill-rule:nonzero;fill:url(#linear1);" d="M 17.292969 5.6875 L 17.292969 8.046875 C 17.292969 9.878906 15.710938 11.421875 13.910156 11.421875 L 8.503906 11.421875 C 7.019531 11.421875 5.796875 12.667969 5.796875 14.125 L 5.796875 19.191406 C 5.796875 20.632812 7.070312 21.480469 8.503906 21.894531 C 10.214844 22.390625 11.859375 22.476562 13.910156 21.894531 C 15.273438 21.507812 16.617188 20.726562 16.617188 19.191406 L 16.617188 17.164062 L 11.210938 17.164062 L 11.210938 16.488281 L 19.324219 16.488281 C 20.898438 16.488281 21.484375 15.410156 22.03125 13.789062 C 22.597656 12.125 22.574219 10.519531 22.03125 8.382812 C 21.640625 6.84375 20.898438 5.6875 19.324219 5.6875 Z M 14.25 18.515625 C 14.8125 18.515625 15.265625 18.964844 15.265625 19.523438 C 15.265625 20.085938 14.8125 20.542969 14.25 20.542969 C 13.691406 20.542969 13.234375 20.085938 13.234375 19.523438 C 13.234375 18.964844 13.691406 18.515625 14.25 18.515625 Z M 14.25 18.515625 "/>
<use xlink:href="#surface5" mask="url(#mask0)"/>
</g>
</svg>
