<?xml version="1.0" encoding="UTF-8"?>
<svg xmlns="http://www.w3.org/2000/svg" xmlns:xlink="http://www.w3.org/1999/xlink" width="px" height="0px" viewBox="0 0 556 625" version="1.1">
<g id="surface1">
<path style=" stroke:none;fill-rule:nonzero;fill:rgb(63.137255%,47.45098%,86.27451%);fill-opacity:1;" d="M 553.527344 185.015625 C 553.523438 174.613281 551.296875 165.417969 546.792969 157.527344 C 542.367188 149.765625 535.742188 143.261719 526.851562 138.117188 C 453.484375 95.851562 380.046875 53.714844 306.699219 11.40625 C 286.925781 0 267.753906 0.417969 248.128906 11.988281 C 218.925781 29.191406 72.71875 112.882812 29.148438 138.09375 C 11.207031 148.476562 2.476562 164.355469 2.472656 184.996094 C 2.441406 270 2.472656 355 2.441406 440 C 2.441406 450.175781 4.578125 459.195312 8.886719 466.964844 C 13.3125 474.960938 20.03125 481.644531 29.125 486.902344 C 72.695312 512.117188 218.921875 595.800781 248.121094 613.011719 C 267.753906 624.585938 286.925781 625 306.707031 613.59375 C 380.054688 571.28125 453.496094 529.144531 526.875 486.875 C 535.96875 481.621094 542.6875 474.933594 547.117188 466.945312 C 551.414062 459.171875 553.558594 450.15625 553.558594 439.976562 C 553.558594 439.976562 553.558594 270.019531 553.527344 185.015625 "/>
<path style=" stroke:none;fill-rule:nonzero;fill:rgb(15.686275%,0%,40.784314%);fill-opacity:1;" d="M 278.84375 311.671875 L 8.886719 466.964844 C 13.3125 474.960938 20.03125 481.644531 29.125 486.902344 C 72.695312 512.117188 218.921875 595.800781 248.121094 613.011719 C 267.753906 624.585938 286.925781 625 306.707031 613.59375 C 380.054688 571.28125 453.496094 529.144531 526.875 486.875 C 535.96875 481.621094 542.6875 474.933594 547.117188 466.945312 Z M 278.84375 311.671875 "/>
<path style=" stroke:none;fill-rule:nonzero;fill:rgb(22.352941%,0%,56.862745%);fill-opacity:1;" d="M 553.527344 185.015625 C 553.523438 174.613281 551.296875 165.417969 546.792969 157.527344 L 278.84375 311.671875 L 547.117188 466.945312 C 551.414062 459.171875 553.550781 450.15625 553.558594 439.976562 C 553.558594 439.976562 553.558594 270.019531 553.527344 185.015625 "/>
<path style=" stroke:none;fill-rule:nonzero;fill:rgb(100%,100%,100%);fill-opacity:1;" d="M 437.785156 253.617188 L 437.785156 282.644531 L 466.839844 282.644531 L 466.839844 253.617188 L 481.367188 253.617188 L 481.367188 282.644531 L 510.421875 282.644531 L 510.421875 297.160156 L 481.367188 297.160156 L 481.367188 326.183594 L 510.421875 326.183594 L 510.421875 340.699219 L 481.367188 340.699219 L 481.367188 369.726562 L 466.839844 369.726562 L 466.839844 340.699219 L 437.785156 340.699219 L 437.785156 369.726562 L 423.257812 369.726562 L 423.257812 340.699219 L 394.207031 340.699219 L 394.207031 326.183594 L 423.257812 326.183594 L 423.257812 297.160156 L 394.207031 297.160156 L 394.207031 282.644531 L 423.257812 282.644531 L 423.257812 253.617188 Z M 466.839844 297.15625 L 437.785156 297.15625 L 437.785156 326.183594 L 466.839844 326.183594 Z M 466.839844 297.15625 "/>
<path style=" stroke:none;fill-rule:nonzero;fill:rgb(100%,100%,100%);fill-opacity:1;" d="M 279.4375 107.835938 C 355.21875 107.835938 421.378906 148.953125 456.820312 210.074219 L 456.472656 209.484375 L 367.308594 260.777344 C 349.746094 231.058594 317.542969 211.003906 280.597656 210.59375 L 279.433594 210.585938 C 223.101562 210.585938 177.429688 256.214844 177.429688 312.496094 C 177.410156 330.238281 182.050781 347.671875 190.882812 363.0625 C 208.464844 393.726562 241.519531 414.414062 279.4375 414.414062 C 317.585938 414.414062 350.828125 393.464844 368.320312 362.46875 L 367.898438 363.214844 L 456.925781 414.742188 C 421.875 475.34375 356.617188 516.335938 281.71875 517.152344 L 279.4375 517.164062 C 203.414062 517.164062 137.066406 475.792969 101.714844 414.351562 C 84.457031 384.355469 74.585938 349.582031 74.585938 312.496094 C 74.585938 199.464844 166.296875 107.832031 279.433594 107.832031 Z M 279.4375 107.835938 "/>
</g>
</svg>
